<svg width="285" height="185" viewBox="0 0 285 185" fill="none" xmlns="http://www.w3.org/2000/svg">
<g opacity="0.76">
<path d="M187.48 180.196H84.656V32.2463H198.777V170.559C198.777 175.882 193.719 180.196 187.48 180.196Z" fill="#FFFFF5"/>
<path d="M198.559 32.2463H84.629V39.1152H198.559V32.2463Z" fill="#E1E8F4"/>
<path d="M169.999 113.612C171.536 113.612 171.536 111.875 169.999 111.875C150.937 111.875 131.875 111.875 112.812 111.875C111.276 111.875 111.276 113.612 112.812 113.612H169.999Z" fill="#E1E8F4"/>
<path d="M139.111 43.8787C129.948 43.8787 121.747 47.9367 116.187 54.3487L139.111 74.2124L162.035 54.3487C156.476 47.9367 148.274 43.8787 139.111 43.8787Z" fill="#859FD5" fill-opacity="0.32"/>
<path d="M171.32 69.7671L141.296 74.0838V104.417C158.063 104.417 171.63 90.8504 171.63 74.0838C171.63 72.6174 171.521 71.1774 171.32 69.7671Z" fill="#5477BE"/>
<path d="M116.22 54.4492C105.413 67.2688 107.042 86.3866 119.862 97.1928C120.983 98.1379 122.155 98.9821 123.363 99.7375L139.413 73.9998L116.22 54.4492Z" fill="#859FD5" fill-opacity="0.5"/>
<path d="M139.371 104.375C133.687 104.376 127.983 102.789 122.973 99.5572L139.374 74.0417L139.371 104.375Z" fill="#859FD5"/>
<path d="M172.862 68.0967C172.023 62.1936 169.486 56.8443 165.763 52.5498L142.839 72.4134L172.862 68.0967Z" fill="#859FD5" fill-opacity="0.2"/>
<path d="M109.216 146.708H98.0726V173.548H109.216V146.708Z" fill="#859FD5"/>
<path d="M109.216 136.315H98.0726V148.928H109.216V136.315Z" fill="#859FD5" fill-opacity="0.32"/>
<path d="M182.576 147.919H171.433V174.76H182.576V147.919Z" fill="#859FD5"/>
<path d="M182.649 125.266H171.433V150.139H182.649V125.266Z" fill="#859FD5" fill-opacity="0.32"/>
<path d="M158.123 145.8H146.98V174.154H158.123V145.8Z" fill="#859FD5"/>
<path d="M158.123 143.277H146.98V162.096H158.123V143.277Z" fill="#859FD5" fill-opacity="0.32"/>
<path d="M133.669 135.924H122.526V174.003H133.669V135.924Z" fill="#859FD5"/>
<path d="M133.669 121.179H122.526V151.636H133.669V121.179Z" fill="#859FD5" fill-opacity="0.32"/>
<path d="M88.9819 37.6228C88.1738 37.6228 87.5166 36.9654 87.5166 36.1575C87.5166 35.3495 88.174 34.6921 88.9819 34.6921C89.7899 34.6921 90.4473 35.3495 90.4473 36.1575C90.4473 36.9654 89.7901 37.6228 88.9819 37.6228ZM88.9819 34.9362C88.3087 34.9362 87.7607 35.484 87.7607 36.1575C87.7607 36.8309 88.3085 37.3787 88.9819 37.3787C89.6552 37.3787 90.2032 36.8309 90.2032 36.1575C90.203 35.484 89.6552 34.9362 88.9819 34.9362Z" fill="white"/>
<path d="M93.5004 37.6228C92.6922 37.6228 92.035 36.9654 92.035 36.1575C92.035 35.3495 92.6924 34.6921 93.5004 34.6921C94.3083 34.6921 94.9657 35.3495 94.9657 36.1575C94.9657 36.9654 94.3085 37.6228 93.5004 37.6228ZM93.5004 34.9362C92.8271 34.9362 92.2791 35.484 92.2791 36.1575C92.2791 36.8309 92.8269 37.3787 93.5004 37.3787C94.1738 37.3787 94.7216 36.8309 94.7216 36.1575C94.7216 35.484 94.1736 34.9362 93.5004 34.9362Z" fill="white"/>
<path d="M98.0187 37.6228C97.2105 37.6228 96.5533 36.9654 96.5533 36.1575C96.5533 35.3495 97.2107 34.6921 98.0187 34.6921C98.8268 34.6921 99.484 35.3495 99.484 36.1575C99.484 36.9654 98.8268 37.6228 98.0187 37.6228ZM98.0187 34.9362C97.3454 34.9362 96.7974 35.484 96.7974 36.1575C96.7974 36.8309 97.3452 37.3787 98.0187 37.3787C98.6919 37.3787 99.24 36.8309 99.24 36.1575C99.24 35.484 98.6921 34.9362 98.0187 34.9362Z" fill="white"/>
<path opacity="0.07" d="M87.7283 184.504H14.9851V72.1592H94.4833V177.75C94.4833 181.48 91.4589 184.504 87.7283 184.504Z" fill="#2E4661"/>
<path d="M81.7702 181.363H5.95251V63.6597H91.6129V171.52C91.6129 176.956 87.2062 181.363 81.7702 181.363Z" fill="#859FD5" fill-opacity="0.5"/>
<path d="M84.3881 73.0581H15.0441V116.908H84.3881V73.0581Z" fill="#FFFFF5"/>
<path d="M58.9717 88.2657C59.2592 88.8456 59.7572 89.3416 60.6997 89.6935C62.4556 90.3491 64.816 89.876 65.8282 88.4057C67.5203 85.9479 67.0448 82.4307 68.8654 79.8772C69.6041 78.841 70.7313 78.0003 72.0594 77.6216C73.3876 77.2426 74.9118 77.3539 76.0938 78.0049C78.0192 79.0655 78.6854 81.257 78.7042 83.2459C78.74 87.0658 78.206 91.0145 77.5181 94.784C77.1853 96.6079 76.6725 98.4818 75.3505 99.923C73.5575 101.878 70.6052 102.692 67.7818 103.127C60.6385 104.228 53.3114 103.555 46.0993 102.879C40.2979 102.335 34.4965 101.791 28.6951 101.248C27.0599 101.094 22.2445 101.342 21.2655 100.208C20.3094 99.1021 21.0608 95.3524 21.6199 94.1952C22.8651 91.6177 26.2709 90.1633 29.4672 90.3268C36.6771 90.6959 33.8272 83.1664 36.1348 79.5911C37.3608 77.6918 40.0606 76.3268 42.386 77.1183C44.6037 77.8731 45.5298 80.0992 46.6228 81.9465C47.1902 82.9056 47.9965 83.8998 49.2091 84.1074C51.2711 84.4601 52.9916 82.364 55.0908 82.4445C56.3337 82.4921 57.3915 83.3311 57.9282 84.3119C58.6579 85.6454 58.4033 87.1192 58.9717 88.2657Z" fill="#859FD5" fill-opacity="0.32"/>
<path d="M79.8559 114.528C79.853 114.528 79.8672 111.372 79.8678 111.199C79.8847 106.489 79.8841 101.779 79.8899 97.0692C79.8954 92.569 80.2663 88.0703 80.1934 83.5814C80.1609 81.5048 79.264 80.4196 77.0768 80.9765C74.9236 81.5248 72.9541 82.8027 71.5989 84.566C70.681 85.7603 69.918 87.2559 68.4905 87.737C65.9392 88.5967 63.8517 85.7233 61.5605 84.3094C59.0937 82.787 55.6597 83.0434 53.4461 84.9151C50.7711 87.1771 50.1575 91.0882 47.8935 93.7617C45.4017 96.7043 40.8758 97.7005 37.3788 96.0759C35.9423 95.4084 34.7076 94.3686 33.2917 93.6589C27.6761 90.8436 19.8683 94.8944 18.9364 101.107V113.962C18.9364 113.962 79.9691 114.642 79.8559 114.528Z" fill="#859FD5"/>
<path d="M21.3893 123.593H16.1771V128.805H21.3893V123.593Z" fill="#859FD5" fill-opacity="0.32"/>
<path d="M21.3893 131.298H16.1771V136.51H21.3893V131.298Z" fill="#859FD5"/>
<path d="M40.8783 125.179H25.6951V126.765H40.8783V125.179Z" fill="#FFFFF5"/>
<path d="M40.6515 133.564H25.4683V135.15H40.6515V133.564Z" fill="#FFFFF5"/>
<path d="M83.0285 145.398H16.8569V147.111H83.0285V145.398Z" fill="#FFFFF5"/>
<path d="M46.3168 150.376H16.8569V173.859H46.3168V150.376Z" fill="#FFFFF5"/>
<path d="M83.0283 150.603H50.8491V160.829H83.0283V150.603Z" fill="#FFFFF5"/>
<path d="M82.6885 163.52H50.5093V173.746H82.6885V163.52Z" fill="#FFFFF5"/>
<path d="M11.7502 56.9127H54.5171C54.7257 56.9127 54.8948 56.7283 54.8948 56.501V15.4293C54.8948 15.2019 54.7257 15.0176 54.5171 15.0176H0.377711C0.169085 15.0176 0 15.2019 0 15.4293V44.1098C0 51.1805 5.26078 56.9127 11.7502 56.9127Z" fill="#859FD5" fill-opacity="0.32"/>
<path d="M44.3692 56.2197L44.1705 69.5426C44.1641 69.9652 43.6218 70.1343 43.3765 69.7902L32.9159 55.114C32.7021 54.8139 32.932 54.4002 33.2996 54.423L44.1272 55.0998C44.4085 55.1173 44.6001 55.3924 44.5191 55.6624L44.3877 56.1005C44.3758 56.1392 44.3696 56.1794 44.3692 56.2197Z" fill="#859FD5" fill-opacity="0.32"/>
<path d="M40.8133 21.8713H7.08984V23.2765H40.8133V21.8713Z" fill="#FFFFF5"/>
<path d="M47.312 32.5859H7.08984V33.9911H47.312V32.5859Z" fill="#FFFFF5"/>
<path d="M47.312 43.3H7.08984V44.7052H47.312V43.3Z" fill="#FFFFF5"/>
<path d="M89.7411 28.4645H49.5854V0H87.1875L95.2403 8.50551V22.5869C95.2403 25.8329 92.7782 28.4645 89.7411 28.4645Z" fill="#859FD5"/>
<path d="M95.2086 8.57327L87.124 8.77654V0L95.2086 8.57327Z" fill="#859FD5" fill-opacity="0.2"/>
<path d="M86.215 7.38721H60.5975V8.60705H86.215V7.38721Z" fill="#F4F4F4"/>
<path d="M86.215 13.2837H56.5393V14.5035H86.215V13.2837Z" fill="#F4F4F4"/>
<path d="M86.215 19.1794H56.5393V20.3993H86.215V19.1794Z" fill="#F4F4F4"/>
<path d="M177.114 81.1894C176.962 81.1894 176.829 81.0774 176.808 80.9227C176.75 80.5056 176.713 80.0814 176.696 79.6621C176.689 79.4915 176.822 79.3478 176.992 79.3412C177.165 79.3363 177.307 79.4672 177.313 79.6376C177.329 80.0371 177.365 80.441 177.42 80.8382C177.443 81.0073 177.325 81.1632 177.156 81.1865C177.142 81.1884 177.128 81.1894 177.114 81.1894Z" fill="#859FD5"/>
<path d="M177.144 77.5023C177.128 77.5023 177.112 77.5011 177.097 77.4988C176.928 77.4733 176.812 77.3157 176.838 77.1471C176.961 76.3358 177.161 75.5147 177.433 74.7066C177.488 74.5449 177.663 74.4578 177.825 74.5123C177.986 74.5667 178.073 74.742 178.019 74.9036C177.758 75.678 177.566 76.4641 177.449 77.2399C177.425 77.3928 177.294 77.5023 177.144 77.5023ZM178.689 72.8507C178.641 72.8507 178.593 72.8396 178.547 72.8163C178.396 72.7381 178.336 72.5519 178.414 72.4001C178.786 71.6801 179.22 70.9595 179.705 70.2587C179.802 70.1184 179.995 70.0834 180.135 70.1806C180.275 70.2776 180.31 70.4702 180.213 70.6104C179.743 71.2896 179.323 71.987 178.964 72.6835C178.909 72.7898 178.801 72.8507 178.689 72.8507ZM181.473 68.8028C181.401 68.8028 181.329 68.7777 181.271 68.7268C181.142 68.6148 181.129 68.4195 181.241 68.291C181.775 67.6783 182.357 67.0747 182.971 66.4968C183.095 66.3798 183.29 66.3856 183.407 66.51C183.524 66.6342 183.518 66.8296 183.394 66.9466C182.795 67.5107 182.227 68.0997 181.706 68.6972C181.645 68.767 181.56 68.8028 181.473 68.8028ZM185.05 65.4252C184.959 65.4252 184.868 65.3847 184.807 65.307C184.702 65.1729 184.725 64.9787 184.859 64.8733C185.507 64.3648 186.187 63.8763 186.881 63.4216C187.024 63.3278 187.215 63.3678 187.309 63.5105C187.402 63.6532 187.362 63.8446 187.22 63.9383C186.54 64.3835 185.874 64.8618 185.241 65.3593C185.184 65.4038 185.117 65.4252 185.05 65.4252ZM189.165 62.7246C189.056 62.7246 188.95 62.6667 188.894 62.5644C188.812 62.4149 188.866 62.227 189.016 62.1449C189.734 61.7505 190.477 61.3705 191.225 61.0159C191.38 60.9425 191.564 61.0084 191.637 61.1625C191.71 61.3167 191.644 61.5009 191.49 61.574C190.753 61.9237 190.021 62.2979 189.314 62.6863C189.266 62.7125 189.216 62.7246 189.165 62.7246ZM193.612 60.6134C193.49 60.6134 193.374 60.5405 193.326 60.4207C193.262 60.2625 193.338 60.0825 193.496 60.0182C194.251 59.7118 195.032 59.4191 195.818 59.1491C195.979 59.0937 196.155 59.1796 196.21 59.3409C196.266 59.5021 196.18 59.678 196.018 59.7334C195.244 59.9999 194.473 60.2884 193.728 60.5908C193.69 60.606 193.651 60.6134 193.612 60.6134ZM198.266 59.0101C198.132 59.0101 198.008 58.922 197.969 58.7864C197.922 58.6225 198.017 58.4514 198.181 58.4042C198.962 58.1797 199.768 57.969 200.577 57.7779C200.743 57.7386 200.91 57.8415 200.949 58.0075C200.988 58.1735 200.885 58.34 200.719 58.3793C199.92 58.5681 199.123 58.7762 198.352 58.998C198.323 59.0062 198.294 59.0101 198.266 59.0101ZM237.655 58.1348L237.404 58.134C237.234 58.1328 237.096 57.9933 237.098 57.8228C237.099 57.6529 237.237 57.5161 237.407 57.5161C237.407 57.5161 237.408 57.5161 237.409 57.5161L237.655 57.517C238.419 57.517 239.155 57.49 239.843 57.4367C240.012 57.4235 240.162 57.5505 240.175 57.7209C240.188 57.891 240.061 58.0395 239.891 58.0529C239.187 58.107 238.435 58.1348 237.655 58.1348ZM234.946 58.0399C234.939 58.0399 234.932 58.0397 234.926 58.0393C234.19 57.9915 233.384 57.9237 232.461 57.8327C232.292 57.816 232.167 57.6646 232.184 57.4949C232.201 57.325 232.354 57.201 232.522 57.2179C233.438 57.3083 234.238 57.3755 234.966 57.4229C235.136 57.434 235.265 57.581 235.254 57.7511C235.243 57.9142 235.107 58.0399 234.946 58.0399ZM203.056 57.8764C202.911 57.8764 202.781 57.773 202.753 57.6249C202.721 57.4572 202.831 57.2956 202.999 57.2639C203.795 57.1131 204.616 56.9753 205.44 56.8544C205.609 56.8299 205.765 56.9465 205.79 57.1152C205.815 57.284 205.698 57.441 205.529 57.4657C204.714 57.5854 203.902 57.7217 203.114 57.8708C203.095 57.8745 203.075 57.8764 203.056 57.8764ZM242.307 57.7303C242.162 57.7303 242.033 57.6278 242.004 57.4799C241.972 57.3125 242.081 57.1504 242.249 57.118C243.062 56.9607 243.848 56.7519 244.584 56.4973C244.746 56.4415 244.921 56.5272 244.977 56.6884C245.033 56.8497 244.947 57.0256 244.786 57.0814C244.022 57.3454 243.208 57.5619 242.366 57.7248C242.346 57.7285 242.326 57.7303 242.307 57.7303ZM230.043 57.5742C230.031 57.5742 230.02 57.5736 230.009 57.5724L229.276 57.4925C228.706 57.4309 228.135 57.3722 227.563 57.3166C227.394 57.3001 227.269 57.1489 227.286 56.9792C227.302 56.8095 227.452 56.6851 227.623 56.7016C228.197 56.7574 228.771 56.8165 229.342 56.8783L230.076 56.9584C230.246 56.977 230.368 57.1296 230.35 57.2991C230.332 57.457 230.198 57.5742 230.043 57.5742ZM207.927 57.1582C207.771 57.1582 207.637 57.0408 207.62 56.8824C207.602 56.7127 207.724 56.5603 207.894 56.542C208.697 56.4551 209.526 56.3803 210.357 56.3196C210.527 56.3066 210.675 56.4351 210.687 56.6052C210.7 56.7753 210.572 56.9234 210.402 56.9358C209.578 56.9959 208.757 57.0701 207.96 57.1562C207.949 57.1576 207.938 57.1582 207.927 57.1582ZM225.14 57.1001C225.132 57.1001 225.124 57.0999 225.115 57.0991C224.289 57.033 223.464 56.9749 222.665 56.9265C222.495 56.9162 222.365 56.7698 222.375 56.5995C222.385 56.4292 222.532 56.3002 222.702 56.3097C223.505 56.3583 224.334 56.4166 225.165 56.4831C225.335 56.4967 225.462 56.6456 225.448 56.8157C225.435 56.9776 225.3 57.1001 225.14 57.1001ZM220.224 56.8046C220.22 56.8046 220.216 56.8046 220.212 56.8044C219.383 56.7723 218.557 56.75 217.757 56.7381C217.587 56.7356 217.45 56.5951 217.453 56.4246C217.456 56.2541 217.593 56.1163 217.766 56.1202C218.571 56.1322 219.402 56.1546 220.236 56.1869C220.406 56.1935 220.539 56.3371 220.532 56.5076C220.526 56.674 220.389 56.8046 220.224 56.8046ZM212.837 56.7978C212.673 56.7978 212.536 56.6676 212.529 56.5014C212.522 56.3309 212.654 56.1872 212.825 56.1802C213.632 56.1472 214.463 56.1256 215.296 56.1159C215.466 56.118 215.606 56.2506 215.608 56.4211C215.61 56.5916 215.473 56.7317 215.303 56.7337C214.476 56.7434 213.651 56.7648 212.85 56.7976C212.846 56.7976 212.841 56.7978 212.837 56.7978ZM246.939 56.1122C246.829 56.1122 246.723 56.0533 246.667 55.9497C246.586 55.7996 246.642 55.6121 246.792 55.5312C247.487 55.1572 248.169 54.7175 248.82 54.2247C248.956 54.1215 249.15 54.1485 249.253 54.2844C249.356 54.4203 249.329 54.6141 249.193 54.7171C248.517 55.2293 247.808 55.6863 247.085 56.0753C247.039 56.1002 246.989 56.1122 246.939 56.1122ZM250.86 53.1611C250.78 53.1611 250.701 53.1309 250.641 53.0705C250.52 52.9498 250.521 52.7542 250.641 52.6337C251.196 52.0803 251.738 51.4705 252.252 50.8211C252.358 50.6875 252.553 50.665 252.686 50.7709C252.82 50.877 252.842 51.0712 252.736 51.2048C252.207 51.8727 251.649 52.5007 251.077 53.0709C251.018 53.1311 250.938 53.1611 250.86 53.1611ZM253.923 49.3175C253.866 49.3175 253.808 49.3016 253.757 49.2683C253.613 49.176 253.572 48.9849 253.664 48.8413C254.09 48.179 254.504 47.4714 254.893 46.7376C254.973 46.5868 255.16 46.5298 255.311 46.6095C255.461 46.6894 255.519 46.8766 255.439 47.0271C255.041 47.776 254.619 48.4989 254.184 49.1754C254.124 49.2675 254.025 49.3175 253.923 49.3175Z" fill="#859FD5"/>
<path d="M256.245 44.9625C256.204 44.9625 256.161 44.9541 256.121 44.9362C255.965 44.8672 255.894 44.6849 255.963 44.5288C256.125 44.1618 256.285 43.7818 256.439 43.3996C256.503 43.2414 256.683 43.1648 256.841 43.2285C256.999 43.2923 257.076 43.4723 257.012 43.6305C256.856 44.0189 256.693 44.405 256.528 44.7782C256.477 44.8938 256.364 44.9625 256.245 44.9625Z" fill="#859FD5"/>
<path d="M270.274 18.0189L268.983 47.3187L259.308 37.1621C259.308 37.1621 270.314 17.1976 270.391 17.5275L269.968 17.1751C270.294 17.0818 258.197 36.4049 258.197 36.4049L244.618 32.8866L269.596 17.5166L270.274 18.0189Z" fill="#5477BE"/>
<path opacity="0.06" d="M275.813 167.484H191.386V101.958H282.027V161.271C282.027 164.703 279.245 167.484 275.813 167.484Z" fill="#2E4661"/>
<path d="M279.067 163.356H193.743V97.6338H285V157.423C285 160.7 282.344 163.356 279.067 163.356Z" fill="#EDF0F2"/>
<path d="M285 97.699H193.867V102.931H285V97.699Z" fill="#859FD5"/>
<path opacity="0.48" d="M284.808 114.161V113.958H273.607V102.966H273.404V113.958H259.975V102.966H259.772V113.958H246.343V102.966H246.141V113.958H232.712V102.966H232.509V113.958H219.08V102.966H218.877V113.958H205.449V102.966H205.246V113.958H194.061V114.161H205.246V126.58H194.061V126.783H205.246V139.203H194.061V139.406H205.246V151.825H194.061V152.028H205.246V163.585H205.449V152.028H218.877V163.585H219.08V152.028H232.509V163.585H232.712V152.028H246.141V163.585H246.343V152.028H259.772V163.585H259.975V152.028H273.404V163.585H273.607V152.028H284.808V151.825H273.607V139.406H284.808V139.203H273.607V126.783H284.808V126.58H273.607V114.161H284.808ZM259.772 114.161V126.58H246.343V114.161H259.772ZM232.712 126.783H246.14V139.203H232.712V126.783ZM232.509 139.203H219.08V126.783H232.509V139.203ZM246.343 126.783H259.772V139.203H246.343V126.783ZM246.14 114.161V126.58H232.712V114.161H246.14ZM232.509 114.161V126.58H219.08V114.161H232.509ZM205.448 114.161H218.877V126.58H205.448V114.161ZM205.448 126.783H218.877V139.203H205.448V126.783ZM205.448 151.825V139.406H218.877V151.825H205.448ZM219.08 151.825V139.406H232.509V151.825H219.08ZM232.712 151.825V139.406H246.14V151.825H232.712ZM246.343 151.825V139.406H259.772V151.825H246.343ZM273.404 151.825H259.975V139.406H273.404V151.825ZM273.404 139.203H259.975V126.783H273.404V139.203ZM273.404 126.58H259.975V114.161H273.404V126.58Z" fill="white"/>
<path d="M275.18 111.291C273.642 111.291 272.396 112.537 272.396 114.075C272.396 114.851 272.714 115.552 273.226 116.057C269.997 118.838 266.768 121.618 263.539 124.398C263.294 124.61 263.048 124.821 262.803 125.033C262.326 124.648 261.72 124.417 261.059 124.417C259.521 124.417 258.275 125.664 258.275 127.201C258.275 128.18 258.781 129.039 259.545 129.536C258.837 131.239 258.13 132.941 257.423 134.644C257.121 135.37 256.82 136.096 256.518 136.822C256.315 136.775 256.105 136.748 255.888 136.748C254.861 136.748 253.965 137.306 253.483 138.134C250.363 136.163 247.244 134.191 244.125 132.22C241.814 130.759 239.503 129.298 237.191 127.837C237.32 127.517 237.392 127.169 237.392 126.804C237.392 125.266 236.145 124.019 234.607 124.019C233.07 124.019 231.823 125.266 231.823 126.804C231.823 126.999 231.844 127.188 231.882 127.372C227.508 129.158 223.133 130.943 218.759 132.728C218.33 132.904 217.901 133.079 217.472 133.254C217.044 132.267 216.062 131.577 214.918 131.577C213.38 131.577 212.134 132.824 212.134 134.361C212.134 135.159 212.471 135.878 213.01 136.385C212.36 137.123 211.711 137.86 211.061 138.597C207.96 142.117 204.859 145.637 201.758 149.157C201.314 148.857 200.778 148.681 200.2 148.681C198.663 148.681 197.416 149.928 197.416 151.465C197.416 153.003 198.663 154.25 200.2 154.25C201.738 154.25 202.985 153.003 202.985 151.465C202.985 150.871 202.797 150.321 202.48 149.869C205.128 146.864 207.775 143.858 210.423 140.853C211.572 139.548 212.721 138.244 213.87 136.94C214.194 137.072 214.547 137.145 214.918 137.145C216.456 137.145 217.702 135.899 217.702 134.361C217.702 134.324 217.698 134.287 217.697 134.25C217.76 134.224 217.823 134.198 217.886 134.173C222.679 132.216 227.472 130.26 232.264 128.304C232.759 129.076 233.623 129.588 234.607 129.588C235.415 129.588 236.14 129.242 236.648 128.693C238.744 130.018 240.84 131.343 242.937 132.668C246.337 134.817 249.738 136.967 253.138 139.116C253.118 139.252 253.104 139.391 253.104 139.532C253.104 141.07 254.35 142.317 255.888 142.317C257.426 142.317 258.672 141.07 258.672 139.532C258.672 138.57 258.184 137.722 257.442 137.222C258.452 134.789 259.463 132.356 260.474 129.923C260.663 129.963 260.858 129.986 261.059 129.986C262.597 129.986 263.844 128.739 263.844 127.201C263.844 126.69 263.703 126.212 263.462 125.8C264.034 125.308 264.605 124.816 265.176 124.324C267.622 122.217 270.068 120.111 272.515 118.004C273.042 117.55 273.57 117.095 274.098 116.641C274.43 116.782 274.796 116.859 275.18 116.859C276.718 116.859 277.964 115.613 277.964 114.075C277.964 112.537 276.718 111.291 275.18 111.291Z" fill="#859FD5"/>
</g>
</svg>
