<svg width="115" height="108" viewBox="0 0 115 108" fill="none" xmlns="http://www.w3.org/2000/svg">
<path d="M105.159 107.419H9.69092C4.33932 107.419 0 103.08 0 97.7286V29.6904C0 24.3388 4.33932 19.9995 9.69092 19.9995H105.159C110.511 19.9995 114.85 24.3388 114.85 29.6904V97.7286C114.848 103.082 110.511 107.419 105.159 107.419Z" fill="white"/>
<path d="M65.4748 95.9237H48.923C48.3277 95.9237 47.8457 95.4417 47.8457 94.8463V53.5895C47.8457 52.9942 48.3277 52.5122 48.923 52.5122H65.4748C66.0701 52.5122 66.5521 52.9942 66.5521 53.5895V94.8463C66.5521 95.4417 66.0701 95.9237 65.4748 95.9237Z" fill="#859FD5" fill-opacity="0.32"/>
<path d="M91.7691 95.9241H75.6142C74.9104 95.9241 74.3401 95.3537 74.3401 94.6483V36.3344C74.3401 35.6306 74.9104 35.0586 75.6142 35.0586H91.7691C92.4728 35.0586 93.0432 35.6289 93.0432 36.3344V94.6483C93.0432 95.352 92.4728 95.9241 91.7691 95.9241Z" fill="#859FD5" fill-opacity="0.5"/>
<path d="M39.6757 95.9237H22.6353C22.175 95.9237 21.8031 95.5518 21.8031 95.0915V70.8234C21.8031 70.3631 22.175 69.9912 22.6353 69.9912H39.6757C40.136 69.9912 40.5078 70.3631 40.5078 70.8234V95.0915C40.5078 95.5501 40.136 95.9237 39.6757 95.9237Z" fill="#859FD5" fill-opacity="0.5"/>
<path d="M13.6363 42.1848L35.1111 20.5398L52.9184 34.0651L77.1856 5.23457L80.5557 7.53236L54.177 40.3413L35.9777 26.4036L16.5658 45.1231L13.6363 42.1848Z" fill="#B7C6E6"/>
<path d="M67.101 5.58545L80.3268 17.6515L84.1458 0.689908L67.101 5.58545Z" fill="#B7C6E6"/>
</svg>
