<svg width="55" height="55" viewBox="0 0 55 55" fill="none" xmlns="http://www.w3.org/2000/svg">
<path d="M7.89111 47.5292L7.69949 47.5457L0.487766 54.7565L0.470276 54.9465L0.653411 54.9996L14.3112 49.0343L14.3923 48.9476L16.7007 42.5147L16.6649 42.3577L12.2954 37.9874L12.129 37.9558L6.04397 40.6108L5.96586 40.6889L0 54.3453L0.0528945 54.5292L0.24367 54.5113L7.45412 47.3011L7.46991 47.109C6.99616 46.4347 7.05771 45.5001 7.65899 44.8978C8.33499 44.2241 9.42633 44.2241 10.1023 44.8978C10.7749 45.5738 10.7749 46.6647 10.1023 47.3403C9.50011 47.9432 8.5655 48.0035 7.89111 47.5292Z" fill="#859FD5" fill-opacity="0.54"/>
<path d="M23.0948 22.5544L32.4464 31.905C43.8359 20.1661 57.1763 2.77466 54.7001 0.299572C52.226 -2.17517 34.8343 11.1646 23.0948 22.5544Z" fill="#859FD5" fill-opacity="0.2"/>
<path d="M15.2872 39.7126C17.4249 41.851 18.6972 44.185 25.6529 38.3574L16.6435 29.3472C10.8154 36.3031 13.1495 37.5746 15.2872 39.7126Z" fill="#859FD5" fill-opacity="0.2"/>
<path d="M25.653 38.3572C26.4366 37.7008 27.2927 36.9403 28.2291 36.065L18.936 26.7705C18.0602 27.7077 17.2988 28.5643 16.6437 29.3471L25.653 38.3572Z" fill="#859FD5" fill-opacity="0.32"/>
<path d="M18.936 26.7706L28.2291 36.0651C29.0485 35.2994 29.9238 34.4544 30.8756 33.5027C31.3932 32.9859 31.9178 32.4494 32.4465 31.9051L23.0949 22.5544C22.5507 23.0819 22.0147 23.6073 21.4966 24.1247C20.5462 25.0756 19.7008 25.9517 18.936 26.7706Z" fill="#859FD5" fill-opacity="0.54"/>
</svg>
