<svg width="397" height="305" viewBox="0 0 397 305" fill="none" xmlns="http://www.w3.org/2000/svg">
<path d="M115.1 131.451C111.274 128.232 107.447 125.013 103.621 121.795C93.4297 133.773 82.7242 145.703 71.737 157.022C61.3947 167.476 48.6792 180.376 39.1873 184.402C29.6201 187.206 19.4351 187.374 17.0173 182.736C14.1004 178.52 17.1969 165.638 23.6056 158.062C32.8277 146.019 48.6895 139.56 65.0451 136.681C76.6576 134.458 90.4879 134.966 98.1365 138.985L98.9898 139.469C106.93 143.431 115.346 147.996 121.82 152.982C128.93 158.396 134.362 165.407 141.217 173.026C158.827 191.808 168.628 214.743 189.673 236.663C198.592 244.414 212.329 253.136 226.829 251.638C244.667 249.481 252.986 238.245 262.329 229.557C287.284 200.26 296.421 166.901 317.787 140.853C327.85 127.995 342.244 117.718 357.385 116.069C361.559 115.623 365.625 115.277 368.6 115.679C371.529 116.06 373.722 117.155 376.626 119.439C380.3 122.271 382.25 127.705 381.909 133.63C381.641 141.608 376.037 148.96 368.373 155.417C359.056 163.849 346.998 165.202 332.951 164.169C319.748 163.509 309.334 161.796 299.647 154.836C272.113 133.414 246.521 105.814 211.78 87.2182C210.691 86.7154 209.596 86.2366 208.513 85.779C204.404 84.0468 200.247 82.5184 196.001 81.1773C188.686 78.8896 181.11 77.0831 172.999 76.5166C164.472 75.784 152.806 76.0108 144.264 79.341C145.755 84.1137 147.245 88.8863 148.736 93.659C156.78 90.7528 163.055 90.9165 172.001 91.4834C178.355 91.9166 184.993 93.4409 191.49 95.4829C195.263 96.674 199.033 98.0606 202.677 99.5969C203.632 100 204.597 100.423 205.489 100.835C235.631 116.889 261.183 143.732 291.201 167.232C302.833 175.955 319.293 178.702 331.987 179.138C346.374 180.467 365.643 178.506 378.106 166.831C386.763 159.55 396.298 148.595 396.89 134.399C397.438 125.244 394.469 114.391 385.939 107.68C382.104 104.522 376.309 101.422 370.558 100.807C364.895 100.121 360.236 100.72 355.782 101.155C334.815 103.63 317.96 116.475 305.974 131.608C283.281 159.652 272.135 195.586 251.558 219.117C243.486 227.342 233.532 236.515 225.951 236.664C216.231 237.541 208.111 232.56 199.284 225.147C183.665 209.112 170.807 182.88 152.352 162.975C146.178 156.156 139.571 147.657 131.119 141.212C122.653 134.759 114.359 130.414 105.52 125.965L106.374 126.449C90.4569 118.305 76.4239 119.781 62.4117 121.914C44.2082 125.174 24.515 132.426 11.7399 148.886C4.0637 159.856 -4.29778 173.48 4.69918 191.295C9.22289 198.249 18.1485 201.322 24.6903 201.409C31.4734 201.663 37.4485 200.404 43.1656 198.865C62.3856 190.353 70.7045 178.656 82.4871 167.484C93.8222 155.801 104.586 143.807 115.1 131.451Z" fill="#48CFCB"/>
<path d="M134.538 74.1274C134.538 74.1274 135.116 47.4485 134.042 47.4999C132.967 47.5514 87.1292 81.5502 87.0003 84.4999C86.8715 87.4496 130.925 124.711 132.014 124.333C133.103 123.956 132.926 103.077 134.538 103C136.151 102.923 178.501 126 192 136.5C215.636 154.884 218.001 164 235.5 178C247.629 187.703 261.562 198.16 276.5 200C288.235 201.445 309 200 309 200" stroke="#229799" stroke-width="15"/>
<path d="M270.444 190.475L287 193L278 208.5L262.2 204.514L270.444 190.475Z" fill="#F6F6F6"/>
</svg>
